# xmcd
# 
# Track frame offsets:
#     150
#     8260
#     23682
#     36005
#     50312
#     69117
#     86120
#     106130
#     131807
#     155617
#     165157
#     174625
# 
# Disc length: 2661
# 
# Revision: 5
# Processed by: cddbd v1.5.2PL0 Copyright (c) Steve Scherf et al.
# Submitted via: fre:ac v1.0.17
# 
DISCID=810a630c
DTITLE=Various Artist - Putumayo Presents Louisiana Gumbo
DYEAR=2000
DGENRE=Blues
TTITLE0=Charles Sheffield - It's Your Voo Doo Working
TTITLE1=Carol Fran and Clarence Hollimon - Door Poppin'
TTITLE2=James Booker - African Gumbo
TTITLE3=Clifton Chenier - Ti Na Na
TTITLE4=Johnny Adams - It Ain't the Same Thing
TTITLE5=Lynn August - Lead Me On
TTITLE6=The Neville Brothers - Voo Doo
TTITLE7=Eddie Bo - Piano Roll
TTITLE8=Rockin' Dopsie, Jr. and the Zydeco Twisters - I'm Coming Home
TTITLE9=Rockie Charles - Festis Believe in Justice
TTITLE10=Percy Mayfield - Louisiana
TTITLE11=Snooks Eaglin - Nine Pound Steel
EXTD=
EXTT0=
EXTT1=
EXTT2=
EXTT3=
EXTT4=
EXTT5=
EXTT6=
EXTT7=
EXTT8=
EXTT9=
EXTT10=
EXTT11=
PLAYORDER=
